# xmcd
# 
# Track frame offsets:
#     150
#     6944
#     21642
#     42462
#     62389
#     83214
#     104436
#     120689
#     140753
#     164979
# 
# Disc length: 2700
# 
# Revision: 1
# Processed by: cddbd v1.5.2PL0 Copyright (c) Steve Scherf et al.
# Submitted via: BonkEnc v1.0.8
# 
DISCID=910a8a0a
DTITLE=Opsvik and Jennings - A Dream I Used To Remember
DYEAR=2009
DGENRE=Contemporary Jazz
TTITLE0=A Dream I Used To Remember
TTITLE1=Canada
TTITLE2=Swimming Back Into The Picture
TTITLE3=Anchor Lane Parade
TTITLE4=Windswept
TTITLE5=Steam And Bells
TTITLE6=Sleepy Rush
TTITLE7=The Good Eye
TTITLE8=September And Starry-Eyed
TTITLE9=Sunroad
EXTD=YEAR: 2009
EXTT0=
EXTT1=
EXTT2=
EXTT3=
EXTT4=
EXTT5=
EXTT6=
EXTT7=
EXTT8=
EXTT9=
PLAYORDER=
